<svg xmlns="http://www.w3.org/2000/svg" version="1.1" xmlns:xlink="http://www.w3.org/1999/xlink" viewBox="0 0 800 800"><defs><filter id="bbburst-blur-1" x="-100%" y="-100%" width="400%" height="400%"><feGaussianBlur in="SourceGraphic" stdDeviation="1"></feGaussianBlur></filter><filter id="bbburst-blur-2" x="-100%" y="-100%" width="400%" height="400%"><feGaussianBlur in="SourceGraphic" stdDeviation="2"></feGaussianBlur></filter><filter id="bbburst-blur-3" x="-100%" y="-100%" width="400%" height="400%"><feGaussianBlur in="SourceGraphic" stdDeviation="4"></feGaussianBlur></filter><filter id="bbburst-blur-4" x="-100%" y="-100%" width="400%" height="400%"><feGaussianBlur in="SourceGraphic" stdDeviation="12"></feGaussianBlur></filter><symbol id="bbburst-shape-1" viewBox="0 0 194 167"><path d="m97 0 96.129 166.5H.871L97 0Z"></path></symbol><symbol id="bbburst-shape-4" viewBox="0 0 149 143"><path d="M71.647 2.781c.898-2.764 4.808-2.764 5.706 0l15.445 47.534a3 3 0 0 0 2.853 2.073h49.98c2.906 0 4.115 3.719 1.764 5.427L106.96 87.193a2.999 2.999 0 0 0-1.09 3.354l15.445 47.534c.898 2.764-2.266 5.062-4.617 3.354l-40.435-29.378a3 3 0 0 0-3.526 0l-40.435 29.378c-2.351 1.708-5.515-.59-4.617-3.354L43.13 90.547a3 3 0 0 0-1.09-3.354L1.605 57.815c-2.35-1.708-1.142-5.427 1.764-5.427h49.98a3 3 0 0 0 2.853-2.073L71.647 2.781Z"></path></symbol><symbol id="bbburst-shape-6" viewBox="0 0 133 116"><path d="M59.7487 10.2513c-13.6683-13.66839-35.8291-13.66839-49.4974 0-13.66839 13.6683-13.66839 35.8291 0 49.4974l49.4974-49.4974ZM66.5 66.5 41.7513 91.2487 66.5 115.997l24.7487-24.7483L66.5 66.5Zm56.249-6.7513c13.668-13.6683 13.668-35.8291 0-49.4974-13.669-13.66839-35.8294-13.66839-49.4977 0l49.4977 49.4974Zm-112.4977 0 31.5 31.5 49.4974-49.4974-31.5-31.5-49.4974 49.4974Zm80.9974 31.5 31.5003-31.5-49.4977-49.4974-31.5 31.5 49.4974 49.4974Z"></path></symbol><symbol id="bbburst-shape-8" viewBox="0 0 87 168"><path d="m12 12 31.2546 18.0749c16.4102 9.4902 20.014 31.6325 7.4603 45.8369L36.3296 92.1884c-12.5684 14.2206-8.9394 36.3916 7.5068 45.8636L75 156" stroke-width="14" stroke-linecap="round" stroke-linejoin="round"></path></symbol><symbol id="bbburst-shape-10" viewBox="0 0 145 145"><circle cx="72.5" cy="72.5" r="61.5" fill="none" stroke-width="22"></circle></symbol></defs><use xlink:href="#bbburst-shape-10" width="34.943052628980006" opacity="0.2235469306619139" transform="matrix(1.1742251478279768,-0.4285968994385822,0.4285968994385822,1.1742251478279768,412.8609597284443,-345.2809205894209)" fill="none" stroke="#ffa6d5" filter="url(#bbburst-blur-3)"></use><use xlink:href="#bbburst-shape-10" width="15.893886736769861" opacity="0.8285418556501856" transform="matrix(0.9853851738179662,0.1703410086260398,-0.1703410086260398,0.9853851738179662,401.996145407703,55.02026791676303)" fill="none" stroke="#ffa6d5"></use><use xlink:href="#bbburst-shape-1" width="44.32650735655409" opacity="0.2671919042452331" transform="matrix(1.2395696797832974,-0.16114282162706983,0.16114282162706983,1.2395696797832974,167.85799621570163,206.2806018323526)" fill="#ffa6d5" filter="url(#bbburst-blur-3)"></use><use xlink:href="#bbburst-shape-4" width="24.45985381043822" opacity="0.6502188753276955" transform="matrix(0.9778185076631194,0.20945397124778994,-0.20945397124778994,0.9778185076631194,608.4101376447476,84.54959742862866)" fill="#ffbd9b" filter="url(#bbburst-blur-1)"></use><use xlink:href="#bbburst-shape-6" width="22.620060635061385" opacity="0.7338240068664291" transform="matrix(0.7319189542442451,-0.6813916967633304,0.6813916967633304,0.7319189542442451,5.784045212843978,76.31650415022392)" fill="#ffbd9b" filter="url(#bbburst-blur-1)"></use><use xlink:href="#bbburst-shape-8" width="16.16826235477776" opacity="0.6867086849619697" transform="matrix(0.9832535182543304,-0.18224302137662526,0.18224302137662526,0.9832535182543304,254.21522337544653,-116.96253770360795)" fill="none" stroke="#ff5c58" filter="url(#bbburst-blur-1)"></use><use xlink:href="#bbburst-shape-6" width="15.578907861435992" opacity="0.7988110045905279" transform="matrix(0.9771641059683137,0.2124860230865697,-0.2124860230865697,0.9771641059683137,509.21351884361195,92.23431530892663)" fill="#ffa6d5"></use><use xlink:href="#bbburst-shape-1" width="42.65637334318869" opacity="0.1001201032752218" transform="matrix(1.2644489292915333,1.2098218485436172,-1.2098218485436172,1.2644489292915333,1051.9138956038646,223.37869481581356)" fill="#2c2891" filter="url(#bbburst-blur-4)"></use><use xlink:href="#bbburst-shape-10" width="30.85223986455295" opacity="0.5646393458122951" transform="matrix(0.9300703349660937,-0.36738150744976017,0.36738150744976017,0.9300703349660937,433.92415589671384,17.232692500731048)" fill="none" stroke="#ff5c58" filter="url(#bbburst-blur-1)"></use><use xlink:href="#bbburst-shape-6" width="18.567820515838186" opacity="0.7458131535536063" transform="matrix(0.7697669655787939,-0.6383250102444804,0.6383250102444804,0.7697669655787939,217.95185962758484,16.68670018575142)" fill="#00a19d" filter="url(#bbburst-blur-1)"></use><use xlink:href="#bbburst-shape-10" width="26.748115599813968" opacity="0.44352657975496335" transform="matrix(0.7630143735553901,0.6463815171768725,-0.6463815171768725,0.7630143735553901,894.6531062751496,131.32132019570963)" fill="none" stroke="#00a19d" filter="url(#bbburst-blur-2)"></use><use xlink:href="#bbburst-shape-6" width="31.97382080221024" opacity="-0.08489772313429644" transform="matrix(1.491780283889659,-0.9149270925041448,0.9149270925041448,1.491780283889659,363.62272572560113,-518.8661879121087)" fill="#ffa6d5" filter="url(#bbburst-blur-4)"></use><use xlink:href="#bbburst-shape-6" width="19.58445252679353" opacity="0.7472903577967336" transform="matrix(0.7625178026099679,-0.6469672330982968,0.6469672330982968,0.7625178026099679,48.599906716334885,25.94829827177631)" fill="#00a19d" filter="url(#bbburst-blur-1)"></use><use xlink:href="#bbburst-shape-10" width="39.25414957055673" opacity="0.16275581499217928" transform="matrix(1.249767163381454,-0.024125449912372296,0.024125449912372296,1.249767163381454,100.3127071641893,-366.7413795603711)" fill="none" stroke="#ffa6d5" filter="url(#bbburst-blur-3)"></use><use xlink:href="#bbburst-shape-10" width="14.669388303082643" opacity="0.8577574057106184" transform="matrix(0.9932303834974049,-0.11616111783896568,0.11616111783896568,0.9932303834974049,283.42638572486936,15.819683443942267)" fill="none" stroke="#00a19d"></use><use xlink:href="#bbburst-shape-1" width="51.777584482437064" opacity="-0.07003755454619398" transform="matrix(1.6037686119321175,-0.7003043905198145,0.7003043905198145,1.6037686119321175,-263.05672380908516,116.2324541346203)" fill="#2c2891" filter="url(#bbburst-blur-4)"></use><use xlink:href="#bbburst-shape-6" width="36.0785484429499" opacity="0.41706134012493623" transform="matrix(0.9892332887834079,0.14634719116799846,-0.14634719116799846,0.9892332887834079,490.6643607669064,259.1859949130238)" fill="#ffbd9b" filter="url(#bbburst-blur-2)"></use><use xlink:href="#bbburst-shape-1" width="12.688540883258597" opacity="0.9216615212399603" transform="matrix(0.9638216782259038,-0.26654788046766087,0.26654788046766087,0.9638216782259038,265.0377539696101,43.53560611420028)" fill="#ffa6d5"></use><use xlink:href="#bbburst-shape-6" width="29.69885299692023" opacity="0.6239909727323549" transform="matrix(0.7918671850597618,0.6106933446710623,-0.6106933446710623,0.7918671850597618,466.20543529187364,105.33021250843376)" fill="#00a19d" filter="url(#bbburst-blur-1)"></use><use xlink:href="#bbburst-shape-6" width="26.406932051660984" opacity="0.6249301300746274" transform="matrix(0.8363775976770351,0.5481537321810294,-0.5481537321810294,0.8363775976770351,444.7023170951288,16.382144616339076)" fill="#2c2891" filter="url(#bbburst-blur-1)"></use><use xlink:href="#bbburst-shape-6" width="31.864215941193788" opacity="0.16801695428602093" transform="matrix(1.0671029297355996,-0.6509925785672983,0.6509925785672983,1.0671029297355996,-240.7426926272363,-106.74800621716474)" fill="#00a19d" filter="url(#bbburst-blur-3)"></use><use xlink:href="#bbburst-shape-1" width="31.759160494957335" opacity="0.5160328708621642" transform="matrix(0.9671164409015164,0.25433401215327806,-0.25433401215327806,0.9671164409015164,684.3680308419079,99.84884225081527)" fill="#ff5c58" filter="url(#bbburst-blur-2)"></use><use xlink:href="#bbburst-shape-6" width="27.048027192435416" opacity="0.4917771910875903" transform="matrix(0.9248347495842603,-0.38036914433405156,0.38036914433405156,0.9248347495842603,7.077381847590061,21.149602686191315)" fill="#2c2891" filter="url(#bbburst-blur-2)"></use><use xlink:href="#bbburst-shape-10" width="32.08481484959514" opacity="0.5934605918444871" transform="matrix(0.8459279776615164,0.5332971560110713,-0.5332971560110713,0.8459279776615164,620.373779894859,234.8497528415068)" fill="none" stroke="#ffa6d5" filter="url(#bbburst-blur-1)"></use><use xlink:href="#bbburst-shape-4" width="19.98150890228751" opacity="0.6678146483399849" transform="matrix(0.8616873657582869,-0.5074395369820373,0.5074395369820373,0.8616873657582869,328.2180703255539,7.4666926171458385)" fill="#ffa6d5" filter="url(#bbburst-blur-1)"></use><use xlink:href="#bbburst-shape-10" width="37.96866851168029" opacity="0.2510019459524342" transform="matrix(1.2479080474597355,0.07228765513717263,-0.07228765513717263,1.2479080474597355,237.75221768458547,-393.03376112247247)" fill="none" stroke="#2c2891" filter="url(#bbburst-blur-3)"></use><use xlink:href="#bbburst-shape-4" width="31.91451189700241" opacity="0.3067571098859787" transform="matrix(1.2259383668829276,-0.24408015200835254,0.24408015200835254,1.2259383668829276,558.0108623048005,60.47128162176375)" fill="#ff5c58" filter="url(#bbburst-blur-3)"></use><use xlink:href="#bbburst-shape-1" width="33.85412340749082" opacity="0.35268406894937676" transform="matrix(0.8904614903466704,-0.45505860524726555,0.45505860524726555,0.8904614903466704,284.0539806102573,-228.20888245025134)" fill="#00a19d" filter="url(#bbburst-blur-2)"></use><use xlink:href="#bbburst-shape-1" width="11.174328777584535" opacity="0.9108040086259337" transform="matrix(0.731265259385189,-0.6820931904192507,0.6820931904192507,0.731265259385189,133.69200256589068,72.6035573031088)" fill="#ff5c58"></use><use xlink:href="#bbburst-shape-4" width="11.601527406221019" opacity="0.8985798556555866" transform="matrix(0.9989637551941773,-0.04551280927769431,0.04551280927769431,0.9989637551941773,417.4729413711343,19.740772354112664)" fill="#ff5c58"></use><use xlink:href="#bbburst-shape-4" width="27.542030011247643" opacity="0.09247182345136185" transform="matrix(1.6296929421595054,-0.6376526595847423,0.6376526595847423,1.6296929421595054,484.66899635511356,-431.79593171661395)" fill="#ffa6d5" filter="url(#bbburst-blur-4)"></use><use xlink:href="#bbburst-shape-6" width="17.94054469814908" opacity="0.8388314593260114" transform="matrix(0.9759002963427073,-0.2182168911844731,0.2182168911844731,0.9759002963427073,239.3653677164541,-21.381739912528985)" fill="#ff5c58"></use><use xlink:href="#bbburst-shape-6" width="46.00621490048153" opacity="0.13558145655968223" transform="matrix(1.215839393984409,0.290231921117621,-0.290231921117621,1.215839393984409,787.4439028674467,-341.4461665143407)" fill="#00a19d" filter="url(#bbburst-blur-3)"></use><use xlink:href="#bbburst-shape-1" width="34.5465120692999" opacity="0.38535933342657247" transform="matrix(0.8131841860779825,-0.5820064256627148,0.5820064256627148,0.8131841860779825,-53.42678401835636,268.706839106985)" fill="#00a19d" filter="url(#bbburst-blur-2)"></use><use xlink:href="#bbburst-shape-1" width="38.3567591591198" opacity="0.16365520650557952" transform="matrix(1.1862039546148029,-0.3942336592126586,0.3942336592126586,1.1862039546148029,577.6820499121086,48.91193711506469)" fill="#ffbd9b" filter="url(#bbburst-blur-3)"></use><use xlink:href="#bbburst-shape-4" width="18.227862339521636" opacity="0.7645537552208655" transform="matrix(0.7317165460570558,0.6816090494017317,-0.6816090494017317,0.7317165460570558,560.0971228091222,105.3426258975191)" fill="#2c2891" filter="url(#bbburst-blur-1)"></use><use xlink:href="#bbburst-shape-4" width="33.514132687029914" opacity="0.03254267432256541" transform="matrix(1.734217793413006,0.2344965778209231,-0.2344965778209231,1.734217793413006,713.0104803752929,-655.1837264577466)" fill="#ffbd9b" filter="url(#bbburst-blur-4)"></use><use xlink:href="#bbburst-shape-8" width="49.15654509147403" opacity="-0.07225277177469835" transform="matrix(1.7451383034181516,-0.13035452405964104,0.13035452405964104,1.7451383034181516,637.8898223304456,54.40645734258965)" fill="none" stroke="#2c2891" filter="url(#bbburst-blur-4)"></use><use xlink:href="#bbburst-shape-4" width="19.604467698913727" opacity="0.6317169904793765" transform="matrix(0.7497110161089676,-0.6617653604751909,0.6617653604751909,0.7497110161089676,128.91550450252635,-59.10884025935502)" fill="#00a19d" filter="url(#bbburst-blur-1)"></use><use xlink:href="#bbburst-shape-6" width="38.47751529396878" opacity="0.1909459765843835" transform="matrix(0.9711458785194294,-0.7870042456268744,0.7870042456268744,0.9711458785194294,317.90558329636787,290.03239267105255)" fill="#ffa6d5" filter="url(#bbburst-blur-3)"></use><use xlink:href="#bbburst-shape-4" width="34.612592429902875" opacity="0.31948776482052965" transform="matrix(1.0270989369632568,0.7124379086551669,-0.7124379086551669,1.0270989369632568,360.95333366664704,-25.117734201959024)" fill="#ffa6d5" filter="url(#bbburst-blur-3)"></use><use xlink:href="#bbburst-shape-4" width="35.12434615132924" opacity="0.3351423183096257" transform="matrix(0.7482733935651835,0.6633904796441112,-0.6633904796441112,0.7482733935651835,616.9855197570848,-208.04317764761072)" fill="#ffbd9b" filter="url(#bbburst-blur-2)"></use><use xlink:href="#bbburst-shape-6" width="34.16963519468879" opacity="0.05921717247067115" transform="matrix(1.7215808497997085,-0.3141009035372449,0.3141009035372449,1.7215808497997085,596.5803594942962,-47.508992622441156)" fill="#ff5c58" filter="url(#bbburst-blur-4)"></use><use xlink:href="#bbburst-shape-8" width="27.557998293422855" opacity="0.5649212503297287" transform="matrix(0.9183953693755167,0.39566393000829403,-0.39566393000829403,0.9183953693755167,385.4998458632783,139.8681030891724)" fill="none" stroke="#00a19d" filter="url(#bbburst-blur-1)"></use><use xlink:href="#bbburst-shape-10" width="36.472667628681485" opacity="0.49572032146803446" transform="matrix(0.9772552054399214,-0.212066648581471,0.212066648581471,0.9772552054399214,149.9499038595109,-159.56890938836415)" fill="none" stroke="#ffbd9b" filter="url(#bbburst-blur-2)"></use><use xlink:href="#bbburst-shape-10" width="21.598218085698445" opacity="0.8045400440758772" transform="matrix(0.9517228155492684,-0.3069587632939859,0.3069587632939859,0.9517228155492684,226.96934033810854,-55.72523404426693)" fill="none" stroke="#00a19d"></use><use xlink:href="#bbburst-shape-1" width="18.64011089715958" opacity="0.7902590941288141" transform="matrix(0.9999968763464759,-0.0024994593997105844,0.0024994593997105844,0.9999968763464759,474.94269194983366,-40.43037820193018)" fill="#ffa6d5"></use><use xlink:href="#bbburst-shape-10" width="15.996346714310437" opacity="0.7404255723926769" transform="matrix(0.9981770598043912,-0.06035360204876571,0.06035360204876571,0.9981770598043912,369.15808646386665,118.0133382763442)" fill="none" stroke="#2c2891" filter="url(#bbburst-blur-1)"></use><use xlink:href="#bbburst-shape-10" width="15.326931322400014" opacity="0.7479280546177813" transform="matrix(0.9152732506041874,0.40283355958564876,-0.40283355958564876,0.9152732506041874,667.2680374795801,22.787313785380945)" fill="none" stroke="#2c2891" filter="url(#bbburst-blur-1)"></use><use xlink:href="#bbburst-shape-10" width="21.084710303076147" opacity="0.6753475371421088" transform="matrix(0.9977666980415772,0.06679533126804582,-0.06679533126804582,0.9977666980415772,472.79417641263336,134.87531494429925)" fill="none" stroke="#ff5c58" filter="url(#bbburst-blur-1)"></use><use xlink:href="#bbburst-shape-1" width="38.41465972774706" opacity="0.043216817099597904" transform="matrix(1.7467742547810459,0.10620594538029206,-0.10620594538029206,1.7467742547810459,173.62627680456265,-661.2312450523636)" fill="#00a19d" filter="url(#bbburst-blur-4)"></use><use xlink:href="#bbburst-shape-4" width="28.120384039325103" opacity="0.6272587987474387" transform="matrix(0.8662068559105855,0.49968558391602425,-0.49968558391602425,0.8662068559105855,458.35194196185023,-60.29538150382456)" fill="#2c2891" filter="url(#bbburst-blur-1)"></use><use xlink:href="#bbburst-shape-10" width="30.211411058683503" opacity="0.2225497835301823" transform="matrix(1.0712284171690392,0.6441814016637823,-0.6441814016637823,1.0712284171690392,977.3026179389709,-136.341155327735)" fill="none" stroke="#ffbd9b" filter="url(#bbburst-blur-3)"></use><use xlink:href="#bbburst-shape-10" width="50.93352430369156" opacity="0.10325316647305738" transform="matrix(1.3386939479047975,-1.127119565016537,1.127119565016537,1.3386939479047975,-431.8042861660083,-312.9931392646408)" fill="none" stroke="#ffa6d5" filter="url(#bbburst-blur-4)"></use><use xlink:href="#bbburst-shape-6" width="35.964430158055706" opacity="0.40999618501224544" transform="matrix(0.9397243246695138,-0.3419330250567005,0.3419330250567005,0.9397243246695138,139.3327235314943,-212.7283870862656)" fill="#ffa6d5" filter="url(#bbburst-blur-2)"></use><use xlink:href="#bbburst-shape-8" width="19.262551002961494" opacity="0.6579401773503986" transform="matrix(0.9994345655019478,-0.03362364168160441,0.03362364168160441,0.9994345655019478,438.4626714894235,-140.54064361863635)" fill="none" stroke="#ffa6d5" filter="url(#bbburst-blur-1)"></use><use xlink:href="#bbburst-shape-10" width="13.458476739847804" opacity="0.8916882539243692" transform="matrix(0.9087204523773562,-0.4174052460512362,0.4174052460512362,0.9087204523773562,202.29612753816758,-2.740476578422374)" fill="none" stroke="#00a19d"></use><use xlink:href="#bbburst-shape-6" width="41.2781207232378" opacity="0.20287468098779082" transform="matrix(1.132758334207289,0.5285438073461155,-0.5285438073461155,1.132758334207289,658.8354197624665,287.63900137173187)" fill="#ffbd9b" filter="url(#bbburst-blur-3)"></use><use xlink:href="#bbburst-shape-6" width="17.432142471544214" opacity="0.8220439702380826" transform="matrix(0.8824998740144705,-0.4703126325801208,0.4703126325801208,0.8824998740144705,263.52196987403505,104.87441665837133)" fill="#2c2891"></use><use xlink:href="#bbburst-shape-10" width="23.00560174462987" opacity="0.18015396621461122" transform="matrix(0.9389806762689222,0.8251153189667233,-0.8251153189667233,0.9389806762689222,1088.0601575247817,5.674561924044838)" fill="none" stroke="#ffa6d5" filter="url(#bbburst-blur-3)"></use><use xlink:href="#bbburst-shape-4" width="19.196899427392886" opacity="0.6427029241954099" transform="matrix(0.8315923096516504,-0.5553865595495029,0.5553865595495029,0.8315923096516504,286.3586848936342,-38.117945051037225)" fill="#ffbd9b" filter="url(#bbburst-blur-1)"></use><use xlink:href="#bbburst-shape-6" width="13.048315531567155" opacity="0.974931477854641" transform="matrix(0.7839531727406404,-0.6208199601735465,0.6208199601735465,0.7839531727406404,140.9419816096453,80.68534018250375)" fill="#ffbd9b"></use><use xlink:href="#bbburst-shape-4" width="23.190865467175477" opacity="0.5684326609773881" transform="matrix(0.9602645311283109,0.27909143708993533,-0.27909143708993533,0.9602645311283109,431.91557119051913,-169.01503402777675)" fill="#2c2891" filter="url(#bbburst-blur-1)"></use><use xlink:href="#bbburst-shape-10" width="9.767536082247146" opacity="0.9364290366147539" transform="matrix(0.9011261549765464,-0.4335569775902418,0.4335569775902418,0.9011261549765464,247.97595792962076,29.308325058526748)" fill="none" stroke="#ffa6d5"></use><use xlink:href="#bbburst-shape-6" width="15.800235432257788" opacity="0.7178263642650571" transform="matrix(0.9721210843965513,0.23447941758643354,-0.23447941758643354,0.9721210843965513,570.8587907618723,103.85834343764776)" fill="#ffa6d5" filter="url(#bbburst-blur-1)"></use><use xlink:href="#bbburst-shape-10" width="14.475751093384154" opacity="0.8709817126210897" transform="matrix(0.9014848102428825,-0.43281074027957545,0.43281074027957545,0.9014848102428825,275.77252534584056,25.24144417168924)" fill="none" stroke="#ffa6d5"></use><use xlink:href="#bbburst-shape-8" width="16.068723543858095" opacity="0.8470235374892972" transform="matrix(0.9999874366618332,0.005012635883051172,-0.005012635883051172,0.9999874366618332,436.9721680264968,-53.79161389206473)" fill="none" stroke="#ffa6d5"></use><use xlink:href="#bbburst-shape-1" width="37.27659846919245" opacity="0.1788185708747133" transform="matrix(1.2497891601259856,-0.022957683497762206,0.022957683497762206,1.2497891601259856,2.1662649352779866,-44.04455026957231)" fill="#2c2891" filter="url(#bbburst-blur-3)"></use><use xlink:href="#bbburst-shape-4" width="24.688330635524775" opacity="0.6548266800615743" transform="matrix(0.995930576996716,-0.09012372497288483,0.09012372497288483,0.995930576996716,311.3037671915203,152.75684745699618)" fill="#00a19d" filter="url(#bbburst-blur-1)"></use><use xlink:href="#bbburst-shape-6" width="39.12520129066912" opacity="0.2786127058938498" transform="matrix(0.9647929417071816,0.7947795792746583,-0.7947795792746583,0.9647929417071816,401.1466619610546,127.5387434362296)" fill="#ff5c58" filter="url(#bbburst-blur-3)"></use><use xlink:href="#bbburst-shape-10" width="35.69295633207916" opacity="0.16566112611810002" transform="matrix(0.9466823302491928,-0.8162674595951736,0.8162674595951736,0.9466823302491928,-45.628782677345384,-325.37297379582577)" fill="none" stroke="#00a19d" filter="url(#bbburst-blur-3)"></use><use xlink:href="#bbburst-shape-6" width="16.703832147436998" opacity="0.7690892338359985" transform="matrix(0.9711170550381732,-0.2386035737661648,0.2386035737661648,0.9711170550381732,332.7710958260342,-83.80827720381376)" fill="#ffa6d5" filter="url(#bbburst-blur-1)"></use><use xlink:href="#bbburst-shape-8" width="26.88440498576314" opacity="0.31416317219192214" transform="matrix(1.2499999907717212,0.00015189041139279563,-0.00015189041139279563,1.2499999907717212,691.0366277743485,-77.13981025337932)" fill="none" stroke="#ffa6d5" filter="url(#bbburst-blur-3)"></use><use xlink:href="#bbburst-shape-10" width="32.20614735282275" opacity="0.48536445383184834" transform="matrix(0.9288932537589624,0.37034757069689,-0.37034757069689,0.9288932537589624,528.7167475483931,-209.06398987588818)" fill="none" stroke="#2c2891" filter="url(#bbburst-blur-2)"></use><use xlink:href="#bbburst-shape-1" width="31.561574236411584" opacity="0.3447470899418609" transform="matrix(0.924581352976429,0.3809846738758347,-0.3809846738758347,0.924581352976429,311.49705677715184,-164.85001406779298)" fill="#ffbd9b" filter="url(#bbburst-blur-2)"></use><use xlink:href="#bbburst-shape-10" width="39.22073210714774" opacity="0.34239621461933567" transform="matrix(0.9462903161937283,-0.3233181675655945,0.3233181675655945,0.9462903161937283,498.53846040547637,-136.02156576240827)" fill="none" stroke="#00a19d" filter="url(#bbburst-blur-2)"></use><use xlink:href="#bbburst-shape-10" width="45.39689107471541" opacity="-0.0792849654380181" transform="matrix(1.6436730605757837,-0.6006986515195755,0.6006986515195755,1.6436730605757837,-227.7452671265822,-580.3954955156906)" fill="none" stroke="#00a19d" filter="url(#bbburst-blur-4)"></use><use xlink:href="#bbburst-shape-10" width="38.94699659145752" opacity="0.41983320093256615" transform="matrix(0.8166662552832193,0.5771102385867743,-0.5771102385867743,0.8166662552832193,868.9452673225982,1.7470665593121453)" fill="none" stroke="#ffbd9b" filter="url(#bbburst-blur-2)"></use><use xlink:href="#bbburst-shape-10" width="31.615859521836594" opacity="0.19857916797365194" transform="matrix(1.2225590593755207,0.2604790708268944,-0.2604790708268944,1.2225590593755207,506.0440336612278,-453.15824560592176)" fill="none" stroke="#ff5c58" filter="url(#bbburst-blur-3)"></use><use xlink:href="#bbburst-shape-4" width="20.964016007220476" opacity="0.5952211005618688" transform="matrix(0.7693823266982623,-0.638788568592432,0.638788568592432,0.7693823266982623,34.54802155112458,249.949078903736)" fill="#ff5c58" filter="url(#bbburst-blur-1)"></use><use xlink:href="#bbburst-shape-1" width="14.02736093411982" opacity="0.9586716924630878" transform="matrix(0.999067832735509,0.043167876866635334,-0.043167876866635334,0.999067832735509,419.21885894409036,16.385420522110508)" fill="#00a19d"></use><use xlink:href="#bbburst-shape-4" width="17.75168377777728" opacity="0.7645887992364419" transform="matrix(0.9992934469210227,0.03758466363692929,-0.03758466363692929,0.9992934469210227,361.0950454335861,95.83510699705568)" fill="#ff5c58" filter="url(#bbburst-blur-1)"></use><use xlink:href="#bbburst-shape-4" width="28.00229397864225" opacity="0.4950367439859068" transform="matrix(0.830022867749518,-0.5577293600061469,0.5577293600061469,0.830022867749518,-38.072484020996,-25.541014015932888)" fill="#ffa6d5" filter="url(#bbburst-blur-2)"></use><use xlink:href="#bbburst-shape-8" width="30.26543427670381" opacity="0.3823003038684193" transform="matrix(0.847981325422812,0.5300261047667096,-0.5300261047667096,0.847981325422812,764.4838584444914,-170.68249970079597)" fill="none" stroke="#00a19d" filter="url(#bbburst-blur-2)"></use><use xlink:href="#bbburst-shape-4" width="33.09263567204149" opacity="0.5114001210552496" transform="matrix(0.9938575485801089,0.11066694687365562,-0.11066694687365562,0.9938575485801089,386.93862226494605,216.69181992863196)" fill="#00a19d" filter="url(#bbburst-blur-2)"></use><use xlink:href="#bbburst-shape-6" width="26.411925553337298" opacity="0.5207041768406606" transform="matrix(0.8484163596505712,0.5293294632620337,-0.5293294632620337,0.8484163596505712,740.6166498345641,-110.35119558401243)" fill="#2c2891" filter="url(#bbburst-blur-2)"></use><use xlink:href="#bbburst-shape-4" width="27.559292555650128" opacity="0.35195812227977497" transform="matrix(0.933105850984989,0.3596018226560864,-0.3596018226560864,0.933105850984989,499.5537734282424,311.7470585062315)" fill="#2c2891" filter="url(#bbburst-blur-2)"></use><use xlink:href="#bbburst-shape-10" width="33.952888913618565" opacity="0.17848852748199306" transform="matrix(1.172393620203545,-0.43358182538711887,0.43358182538711887,1.172393620203545,148.61573667992346,303.4974665317123)" fill="none" stroke="#ff5c58" filter="url(#bbburst-blur-3)"></use><use xlink:href="#bbburst-shape-6" width="14.934024230096078" opacity="0.8885482485277929" transform="matrix(0.9766198665979156,0.21497357085527893,-0.21497357085527893,0.9766198665979156,497.5073116060212,54.23919612090634)" fill="#ffbd9b"></use><use xlink:href="#bbburst-shape-6" width="40.2161039045301" opacity="0.33341087062962316" transform="matrix(0.9881211180296516,-0.15367711639613513,0.15367711639613513,0.9881211180296516,37.320584284044614,-96.21158166275103)" fill="#ffa6d5" filter="url(#bbburst-blur-2)"></use><use xlink:href="#bbburst-shape-10" width="27.9778023825473" opacity="0.4438677730354904" transform="matrix(0.9788594582833428,-0.20453400922399362,0.20453400922399362,0.9788594582833428,181.604940151912,229.32725473044815)" fill="none" stroke="#2c2891" filter="url(#bbburst-blur-2)"></use><use xlink:href="#bbburst-shape-8" width="34.58442428254777" opacity="0.15619982205012506" transform="matrix(0.9264147676039363,0.8391994270525599,-0.8391994270525599,0.9264147676039363,851.4190451491065,-341.19449323091857)" fill="none" stroke="#ffa6d5" filter="url(#bbburst-blur-3)"></use><use xlink:href="#bbburst-shape-4" width="42.84355374916148" opacity="0.18365824840473666" transform="matrix(1.2355576490137938,-0.18946581740120536,0.18946581740120536,1.2355576490137938,37.64585463242794,169.29271098750667)" fill="#2c2891" filter="url(#bbburst-blur-3)"></use><use xlink:href="#bbburst-shape-8" width="31.085793891073195" opacity="0.07628858725994259" transform="matrix(1.2652871341558793,-1.2089451882279865,1.2089451882279865,1.2652871341558793,-313.7680284105456,271.09081613335695)" fill="none" stroke="#ff5c58" filter="url(#bbburst-blur-4)"></use><use xlink:href="#bbburst-shape-10" width="15.914731157336087" opacity="0.8397233240787909" transform="matrix(0.986534874063784,0.16355103868809215,-0.16355103868809215,0.986534874063784,459.97348975811974,-67.99983539433066)" fill="none" stroke="#ff5c58"></use><use xlink:href="#bbburst-shape-6" width="17.321090666158312" opacity="0.723384140301389" transform="matrix(0.8786987418411862,0.4773767077337522,-0.4773767077337522,0.8786987418411862,469.70469630920616,95.19425459068708)" fill="#ffa6d5" filter="url(#bbburst-blur-1)"></use><use xlink:href="#bbburst-shape-4" width="39.38848262953783" opacity="0.4572400683310879" transform="matrix(0.7962918974996512,-0.6049125672164574,0.6049125672164574,0.7962918974996512,-89.62850436186363,169.77224062351286)" fill="#00a19d" filter="url(#bbburst-blur-2)"></use><use xlink:href="#bbburst-shape-6" width="18.105671689871397" opacity="0.7084893527324182" transform="matrix(0.9929124597009645,-0.11884800112151814,0.11884800112151814,0.9929124597009645,250.2343219238804,96.18705868408682)" fill="#ffa6d5" filter="url(#bbburst-blur-1)"></use><use xlink:href="#bbburst-shape-10" width="44.32184819075414" opacity="0.08553529739683197" transform="matrix(1.297357441769546,-1.1744631404540455,1.1744631404540455,1.297357441769546,-455.38980138888166,112.01105275202974)" fill="none" stroke="#ffbd9b" filter="url(#bbburst-blur-4)"></use><use xlink:href="#bbburst-shape-8" width="29.13152891663916" opacity="0.5274416632183223" transform="matrix(0.9991210133507975,0.04191897757430937,-0.04191897757430937,0.9991210133507975,588.1866438277743,-103.38497961213398)" fill="none" stroke="#ff5c58" filter="url(#bbburst-blur-2)"></use><use xlink:href="#bbburst-shape-4" width="23.212216057429305" opacity="0.6501012280571086" transform="matrix(0.9980253676683134,0.06281214445095658,-0.06281214445095658,0.9980253676683134,569.0205152940466,24.937682786348773)" fill="#00a19d" filter="url(#bbburst-blur-1)"></use><use xlink:href="#bbburst-shape-10" width="34.368241502651415" opacity="0.5200979104177594" transform="matrix(0.936349998232078,0.3510679148124868,-0.3510679148124868,0.936349998232078,622.2257049133339,211.9232855442974)" fill="none" stroke="#2c2891" filter="url(#bbburst-blur-2)"></use><use xlink:href="#bbburst-shape-10" width="39.55335125179836" opacity="0.4107015010551327" transform="matrix(0.9952248460920384,-0.09760894283352572,0.09760894283352572,0.9952248460920384,535.9050981824688,183.95575204859455)" fill="none" stroke="#ff5c58" filter="url(#bbburst-blur-2)"></use><use xlink:href="#bbburst-shape-6" width="30.735669176585688" opacity="0.5197698096476912" transform="matrix(0.9916595465280669,0.12888500215210766,-0.12888500215210766,0.9916595465280669,507.89583614388795,-202.5481542640541)" fill="#00a19d" filter="url(#bbburst-blur-2)"></use><use xlink:href="#bbburst-shape-10" width="36.83849680542651" opacity="0.32915193649254637" transform="matrix(1.1213934845796112,-0.552246912840984,0.552246912840984,1.1213934845796112,304.33925004564946,225.90169584946455)" fill="none" stroke="#ffa6d5" filter="url(#bbburst-blur-3)"></use><use xlink:href="#bbburst-shape-8" width="15.740211492457057" opacity="0.8511676069374827" transform="matrix(0.9911803517744836,0.1325198485367795,-0.1325198485367795,0.9911803517744836,432.59938364014374,68.26208128644834)" fill="none" stroke="#ffbd9b"></use><use xlink:href="#bbburst-shape-10" width="16.612367482087176" opacity="0.7551177977883988" transform="matrix(0.859381921078121,0.5113342485342424,-0.5113342485342424,0.859381921078121,698.92694622936,94.83388142961553)" fill="none" stroke="#2c2891" filter="url(#bbburst-blur-1)"></use><use xlink:href="#bbburst-shape-6" width="26.725534470586815" opacity="0.5755073754882789" transform="matrix(0.9882195378769216,0.15304295135132345,-0.15304295135132345,0.9882195378769216,581.2326124101342,139.56700422720598)" fill="#ffa6d5" filter="url(#bbburst-blur-1)"></use><use xlink:href="#bbburst-shape-4" width="12.432871903366111" opacity="0.9209702075166089" transform="matrix(0.8813772091107284,0.4724131827756116,-0.4724131827756116,0.8813772091107284,548.8120256722126,36.5960345291947)" fill="#ffa6d5"></use><use xlink:href="#bbburst-shape-8" width="14.527546997656149" opacity="0.8308818793297541" transform="matrix(0.9703969178288879,-0.24151567623695663,0.24151567623695663,0.9703969178288879,371.5259132743877,25.407469958440686)" fill="none" stroke="#ff5c58"></use><use xlink:href="#bbburst-shape-1" width="17.30617775026832" opacity="0.7415710106526212" transform="matrix(0.7731007517382481,0.6342832393038269,-0.6342832393038269,0.7731007517382481,639.1569271009458,-30.73921000968619)" fill="#ff5c58" filter="url(#bbburst-blur-1)"></use></svg>